<mxfile host="app.diagrams.net" agent="Mozilla/5.0 (Macintosh; Intel Mac OS X 10_15_7) AppleWebKit/537.36 (KHTML, like Gecko) Chrome/132.0.0.0 Safari/537.36" version="26.0.11">
  <diagram id="wFE0QG_FPsp0jaGvCLVb" name="Page-1">
    <mxGraphModel dx="3235" dy="1335" grid="1" gridSize="10" guides="1" tooltips="1" connect="1" arrows="1" fold="1" page="1" pageScale="1" pageWidth="850" pageHeight="1100" math="0" shadow="0">
      <root>
        <mxCell id="0" />
        <mxCell id="1" parent="0" />
        <mxCell id="OYiiZ0HlDMGkYRRTiYdv-2" value="&lt;p style=&quot;text-align: left;&quot; class=&quot;p1&quot;&gt;&lt;span class=&quot;s1&quot;&gt;&lt;b&gt;&lt;font style=&quot;font-size: 36px;&quot;&gt;História de Usuário&lt;/font&gt;&lt;/b&gt;&lt;/span&gt;&lt;/p&gt;&lt;div&gt;&lt;span class=&quot;s1&quot;&gt;&lt;br&gt;&lt;/span&gt;&lt;/div&gt;" style="text;html=1;align=center;verticalAlign=middle;whiteSpace=wrap;rounded=0;" vertex="1" parent="1">
          <mxGeometry x="260" y="50" width="360" height="30" as="geometry" />
        </mxCell>
        <mxCell id="OYiiZ0HlDMGkYRRTiYdv-4" value="&lt;div&gt;&lt;font style=&quot;font-size: 18px;&quot;&gt;2. Cancelamento de Matrícula (Aluno)&lt;/font&gt;&lt;/div&gt;&lt;div&gt;&lt;font size=&quot;3&quot;&gt;&lt;br&gt;&lt;/font&gt;&lt;/div&gt;&lt;div&gt;&lt;font size=&quot;3&quot;&gt;• &lt;b&gt;Como&lt;/b&gt; um aluno,&lt;/font&gt;&lt;/div&gt;&lt;div&gt;&lt;font size=&quot;3&quot;&gt;&lt;br&gt;&lt;/font&gt;&lt;/div&gt;&lt;div&gt;&lt;font size=&quot;3&quot;&gt;• &lt;b&gt;Quero&lt;/b&gt; cancelar minha matrícula em disciplinas durante o período permitido,&lt;/font&gt;&lt;/div&gt;&lt;div&gt;&lt;font size=&quot;3&quot;&gt;&lt;br&gt;&lt;/font&gt;&lt;/div&gt;&lt;div&gt;&lt;font size=&quot;3&quot;&gt;• &lt;b&gt;Para&lt;/b&gt; ajustar minha carga horária de acordo com minhas necessidades.&lt;/font&gt;&lt;/div&gt;" style="text;html=1;align=center;verticalAlign=middle;resizable=0;points=[];autosize=1;strokeColor=#d6b656;fillColor=#fff2cc;" vertex="1" parent="1">
          <mxGeometry x="480" y="160" width="570" height="150" as="geometry" />
        </mxCell>
        <mxCell id="OYiiZ0HlDMGkYRRTiYdv-5" value="&lt;h1 style=&quot;margin-top: 0px;&quot;&gt;&lt;p style=&quot;font-weight: 400;&quot; class=&quot;p1&quot;&gt;&lt;font style=&quot;font-size: 18px;&quot;&gt;&lt;span style=&quot;background-color: transparent; color: light-dark(rgb(0, 0, 0), rgb(255, 255, 255));&quot; class=&quot;s2&quot;&gt;1.&lt;span style=&quot;&quot; class=&quot;Apple-tab-span&quot;&gt;&amp;nbsp;&lt;/span&gt;&lt;/span&gt;&lt;span style=&quot;background-color: transparent; color: light-dark(rgb(0, 0, 0), rgb(255, 255, 255));&quot; class=&quot;s3&quot;&gt;Matrícula de Disciplinas (Aluno)&lt;/span&gt;&lt;/font&gt;&lt;/p&gt;&lt;/h1&gt;&lt;p class=&quot;p3&quot;&gt;&lt;font size=&quot;3&quot;&gt;&lt;span class=&quot;s2&quot;&gt;&lt;span class=&quot;Apple-tab-span&quot;&gt;&lt;/span&gt;•&lt;span class=&quot;Apple-tab-span&quot;&gt;&amp;nbsp;&lt;/span&gt;&lt;/span&gt;&lt;span class=&quot;s3&quot;&gt;&lt;b&gt;Como&lt;/b&gt;&lt;/span&gt;&lt;span class=&quot;s2&quot;&gt;&amp;nbsp;um aluno,&lt;/span&gt;&lt;/font&gt;&lt;/p&gt;&lt;p class=&quot;p3&quot;&gt;&lt;font size=&quot;3&quot;&gt;&lt;span class=&quot;s2&quot;&gt;&lt;span class=&quot;Apple-tab-span&quot;&gt;&lt;/span&gt;•&lt;span class=&quot;Apple-tab-span&quot;&gt;&amp;nbsp;&lt;/span&gt;&lt;/span&gt;&lt;span class=&quot;s3&quot;&gt;&lt;b&gt;Quero&lt;/b&gt;&lt;/span&gt;&lt;span class=&quot;s2&quot;&gt;&amp;nbsp;me matricular em até 4 disciplinas obrigatórias e 2 optativas,&lt;/span&gt;&lt;/font&gt;&lt;/p&gt;&lt;p class=&quot;p3&quot;&gt;&lt;font size=&quot;3&quot;&gt;&lt;span class=&quot;s2&quot;&gt;&lt;span class=&quot;Apple-tab-span&quot;&gt;&lt;/span&gt;•&lt;span class=&quot;Apple-tab-span&quot;&gt;&amp;nbsp;&lt;/span&gt;&lt;/span&gt;&lt;span class=&quot;s3&quot;&gt;&lt;b&gt;Para&lt;/b&gt;&lt;/span&gt;&lt;span class=&quot;s2&quot;&gt;&amp;nbsp;garantir minha participação nas aulas do próximo semestre.&lt;/span&gt;&lt;/font&gt;&lt;/p&gt;&lt;p class=&quot;p2&quot;&gt;&lt;br style=&quot;text-align: left; text-wrap-mode: wrap;&quot;&gt;&lt;/p&gt;" style="text;html=1;align=center;verticalAlign=middle;resizable=0;points=[];autosize=1;strokeColor=#d6b656;fillColor=#fff2cc;" vertex="1" parent="1">
          <mxGeometry x="-160" y="140" width="510" height="210" as="geometry" />
        </mxCell>
        <mxCell id="OYiiZ0HlDMGkYRRTiYdv-6" value="&lt;div&gt;&lt;font style=&quot;font-size: 18px;&quot;&gt;3. Visualização de Disciplinas Matriculadas (Aluno)&lt;/font&gt;&lt;/div&gt;&lt;div&gt;&lt;font size=&quot;3&quot;&gt;&lt;br&gt;&lt;/font&gt;&lt;/div&gt;&lt;div&gt;&lt;font size=&quot;3&quot;&gt;• &lt;b&gt;Como&lt;/b&gt; um aluno,&lt;/font&gt;&lt;/div&gt;&lt;div&gt;&lt;font size=&quot;3&quot;&gt;&lt;br&gt;&lt;/font&gt;&lt;/div&gt;&lt;div&gt;&lt;font size=&quot;3&quot;&gt;• &lt;b&gt;Quero&lt;/b&gt; visualizar todas as disciplinas em que estou matriculado,&lt;/font&gt;&lt;/div&gt;&lt;div&gt;&lt;font size=&quot;3&quot;&gt;&lt;br&gt;&lt;/font&gt;&lt;/div&gt;&lt;div&gt;&lt;font size=&quot;3&quot;&gt;• &lt;b&gt;Para&lt;/b&gt; acompanhar facilmente minha grade de horários e compromissos.&lt;/font&gt;&lt;/div&gt;" style="text;html=1;align=center;verticalAlign=middle;resizable=0;points=[];autosize=1;strokeColor=#d6b656;fillColor=#fff2cc;" vertex="1" parent="1">
          <mxGeometry x="-190" y="400" width="540" height="150" as="geometry" />
        </mxCell>
        <mxCell id="OYiiZ0HlDMGkYRRTiYdv-7" value="&lt;div&gt;&lt;font style=&quot;font-size: 18px;&quot;&gt;4. Consulta de Alunos Matriculados (Professor)&lt;/font&gt;&lt;/div&gt;&lt;div&gt;&lt;font size=&quot;3&quot;&gt;&lt;br&gt;&lt;/font&gt;&lt;/div&gt;&lt;div&gt;&lt;font size=&quot;3&quot;&gt;• &lt;b&gt;Como&lt;/b&gt; um professor,&lt;/font&gt;&lt;/div&gt;&lt;div&gt;&lt;font size=&quot;3&quot;&gt;&lt;br&gt;&lt;/font&gt;&lt;/div&gt;&lt;div&gt;&lt;font size=&quot;3&quot;&gt;• &lt;b&gt;Quero&lt;/b&gt; acessar a lista de alunos matriculados em minhas disciplinas,&lt;/font&gt;&lt;/div&gt;&lt;div&gt;&lt;font size=&quot;3&quot;&gt;&lt;br&gt;&lt;/font&gt;&lt;/div&gt;&lt;div&gt;&lt;font size=&quot;3&quot;&gt;• &lt;b&gt;Para&lt;/b&gt; me preparar melhor para as aulas e acompanhar o desempenho dos alunos.&lt;/font&gt;&lt;/div&gt;&lt;div&gt;&lt;br&gt;&lt;/div&gt;" style="text;html=1;align=center;verticalAlign=middle;resizable=0;points=[];autosize=1;strokeColor=#d6b656;fillColor=#fff2cc;" vertex="1" parent="1">
          <mxGeometry x="455" y="390" width="620" height="160" as="geometry" />
        </mxCell>
        <mxCell id="OYiiZ0HlDMGkYRRTiYdv-8" value="&lt;div&gt;&lt;font style=&quot;font-size: 18px;&quot;&gt;5. Gestão de Disciplinas e Cursos (Secretaria)&lt;/font&gt;&lt;/div&gt;&lt;div&gt;&lt;font size=&quot;3&quot;&gt;&lt;br&gt;&lt;/font&gt;&lt;/div&gt;&lt;div&gt;&lt;font size=&quot;3&quot;&gt;• &lt;b&gt;Como&lt;/b&gt; um membro da secretaria,&lt;/font&gt;&lt;/div&gt;&lt;div&gt;&lt;font size=&quot;3&quot;&gt;&lt;br&gt;&lt;/font&gt;&lt;/div&gt;&lt;div&gt;&lt;font size=&quot;3&quot;&gt;• &lt;b&gt;Quero&lt;/b&gt; cadastrar, editar e remover cursos e disciplinas,&lt;/font&gt;&lt;/div&gt;&lt;div&gt;&lt;font size=&quot;3&quot;&gt;&lt;br&gt;&lt;/font&gt;&lt;/div&gt;&lt;div&gt;&lt;font size=&quot;3&quot;&gt;• &lt;b&gt;Para&lt;/b&gt; manter o currículo acadêmico sempre atualizado.&lt;/font&gt;&lt;/div&gt;" style="text;html=1;align=center;verticalAlign=middle;resizable=0;points=[];autosize=1;strokeColor=#d6b656;fillColor=#fff2cc;" vertex="1" parent="1">
          <mxGeometry x="-115" y="640" width="420" height="150" as="geometry" />
        </mxCell>
        <mxCell id="OYiiZ0HlDMGkYRRTiYdv-9" value="&lt;div&gt;&lt;font style=&quot;font-size: 18px;&quot;&gt;6. Abertura e Fechamento do Período de Matrícula (Secretaria)&lt;/font&gt;&lt;/div&gt;&lt;div&gt;&lt;font size=&quot;3&quot;&gt;&lt;br&gt;&lt;/font&gt;&lt;/div&gt;&lt;div&gt;&lt;font size=&quot;3&quot;&gt;• &lt;b&gt;Como&lt;/b&gt; um membro da secretaria,&lt;/font&gt;&lt;/div&gt;&lt;div&gt;&lt;font size=&quot;3&quot;&gt;&lt;br&gt;&lt;/font&gt;&lt;/div&gt;&lt;div&gt;&lt;font size=&quot;3&quot;&gt;• &lt;b&gt;Quero&lt;/b&gt; abrir e encerrar o período de matrícula,&lt;/font&gt;&lt;/div&gt;&lt;div&gt;&lt;font size=&quot;3&quot;&gt;&lt;br&gt;&lt;/font&gt;&lt;/div&gt;&lt;div&gt;&lt;font size=&quot;3&quot;&gt;• &lt;b&gt;Para&lt;/b&gt; controlar o calendário acadêmico de forma eficiente.&lt;/font&gt;&lt;/div&gt;&lt;div&gt;&lt;br&gt;&lt;/div&gt;" style="text;html=1;align=center;verticalAlign=middle;resizable=0;points=[];autosize=1;strokeColor=#d6b656;fillColor=#fff2cc;" vertex="1" parent="1">
          <mxGeometry x="500" y="620" width="530" height="160" as="geometry" />
        </mxCell>
        <mxCell id="OYiiZ0HlDMGkYRRTiYdv-10" value="&lt;div&gt;&lt;font style=&quot;font-size: 18px;&quot;&gt;7. Validação de Login (Todos os Usuários)&lt;/font&gt;&lt;/div&gt;&lt;div&gt;&lt;font size=&quot;3&quot;&gt;&lt;br&gt;&lt;/font&gt;&lt;/div&gt;&lt;div&gt;&lt;font size=&quot;3&quot;&gt;• &lt;b&gt;Como&lt;/b&gt; um usuário do sistema,&lt;/font&gt;&lt;/div&gt;&lt;div&gt;&lt;font size=&quot;3&quot;&gt;&lt;br&gt;&lt;/font&gt;&lt;/div&gt;&lt;div&gt;&lt;font size=&quot;3&quot;&gt;• &lt;b&gt;Quero&lt;/b&gt; realizar login com meu e-mail e senha,&lt;/font&gt;&lt;/div&gt;&lt;div&gt;&lt;font size=&quot;3&quot;&gt;&lt;br&gt;&lt;/font&gt;&lt;/div&gt;&lt;div&gt;&lt;font size=&quot;3&quot;&gt;• &lt;b&gt;Para&lt;/b&gt; acessar de forma segura as funcionalidades do sistema.&lt;/font&gt;&lt;/div&gt;" style="text;html=1;align=center;verticalAlign=middle;resizable=0;points=[];autosize=1;strokeColor=#d6b656;fillColor=#fff2cc;" vertex="1" parent="1">
          <mxGeometry x="-155" y="860" width="470" height="150" as="geometry" />
        </mxCell>
        <mxCell id="OYiiZ0HlDMGkYRRTiYdv-11" value="&lt;div&gt;&lt;font style=&quot;font-size: 18px;&quot;&gt;8. Notificação de Cobrança (Sistema de Cobrança)&lt;/font&gt;&lt;/div&gt;&lt;div&gt;&lt;font size=&quot;3&quot;&gt;&lt;br&gt;&lt;/font&gt;&lt;/div&gt;&lt;div&gt;&lt;font size=&quot;3&quot;&gt;• &lt;b&gt;Como&lt;/b&gt; o sistema de cobrança,&lt;/font&gt;&lt;/div&gt;&lt;div&gt;&lt;font size=&quot;3&quot;&gt;&lt;br&gt;&lt;/font&gt;&lt;/div&gt;&lt;div&gt;&lt;font size=&quot;3&quot;&gt;• &lt;b&gt;Quero&lt;/b&gt; ser notificado automaticamente quando um aluno concluir a matrícula,&lt;/font&gt;&lt;/div&gt;&lt;div&gt;&lt;font size=&quot;3&quot;&gt;&lt;br&gt;&lt;/font&gt;&lt;/div&gt;&lt;div&gt;&lt;font size=&quot;3&quot;&gt;• &lt;b&gt;Para&lt;/b&gt; gerar as cobranças referentes às disciplinas do semestre.&lt;/font&gt;&lt;/div&gt;&lt;div&gt;&lt;br&gt;&lt;/div&gt;" style="text;html=1;align=center;verticalAlign=middle;resizable=0;points=[];autosize=1;strokeColor=#d6b656;fillColor=#fff2cc;" vertex="1" parent="1">
          <mxGeometry x="475" y="855" width="580" height="160" as="geometry" />
        </mxCell>
        <mxCell id="OYiiZ0HlDMGkYRRTiYdv-12" value="&lt;div&gt;&lt;font style=&quot;font-size: 18px;&quot;&gt;9. Verificação Automática da Ativação de Disciplinas (Sistema)&lt;/font&gt;&lt;/div&gt;&lt;div&gt;&lt;font size=&quot;3&quot;&gt;&lt;br&gt;&lt;/font&gt;&lt;/div&gt;&lt;div&gt;&lt;font size=&quot;3&quot;&gt;• &lt;b&gt;Como&lt;/b&gt; o sistema de matrículas,&lt;/font&gt;&lt;/div&gt;&lt;div&gt;&lt;font size=&quot;3&quot;&gt;&lt;br&gt;&lt;/font&gt;&lt;/div&gt;&lt;div&gt;&lt;font size=&quot;3&quot;&gt;• &lt;b&gt;Quero&lt;/b&gt; verificar automaticamente se uma disciplina possui pelo menos 3 alunos matriculados,&lt;/font&gt;&lt;/div&gt;&lt;div&gt;&lt;font size=&quot;3&quot;&gt;&lt;br&gt;&lt;/font&gt;&lt;/div&gt;&lt;div&gt;&lt;ul&gt;&lt;li&gt;&lt;font size=&quot;3&quot;&gt;&lt;b&gt;Para &lt;/b&gt;ativá-la ou cancelá-la de acordo com as normas acadêmicas&lt;/font&gt;&lt;/li&gt;&lt;/ul&gt;&lt;/div&gt;" style="text;html=1;align=center;verticalAlign=middle;resizable=0;points=[];autosize=1;strokeColor=#d6b656;fillColor=#fff2cc;" vertex="1" parent="1">
          <mxGeometry x="90" y="1100" width="700" height="170" as="geometry" />
        </mxCell>
      </root>
    </mxGraphModel>
  </diagram>
</mxfile>
